<svg width="310" height="172" viewBox="0 0 310 172" fill="none" xmlns="http://www.w3.org/2000/svg">
<path d="M2.99987 169.257C39.5175 133.642 88.6764 102.923 139.942 94.8764C153.882 92.6883 221.712 81.752 221.384 107.986C221.227 120.55 207.173 118.141 199.794 114.116C185.27 106.192 174.467 98.6157 164.424 84.8709C148.923 63.6552 132.018 29.5157 155.431 7.95233C165.535 -1.354 184.575 4.24979 193.792 11.2772C202.828 18.167 208.789 26.9385 215.53 35.9067C221.009 43.1958 219.523 42.4444 223.905 34.4115C234.904 14.2492 269.278 0.419157 274.781 32.2036C277.868 50.0367 271.818 65.4104 266.161 81.6996C264.036 87.8182 260.727 98.4593 256.29 103.267C251.46 108.501 248.984 100.027 250.697 95.5516C254.956 84.4251 260.577 79.674 272.585 79.8243C283.444 79.9602 297.746 88.585 298.278 100.948C298.573 107.806 300.328 106.151 302.722 101.003C304.58 97.0093 307.377 84.2109 307.322 88.6153C307.302 90.1671 307.056 103.011 305.531 103.883C300.101 106.986 292.781 106.953 286.979 108.807" stroke="url(#paint0_linear_1_49)" stroke-width="5" stroke-linecap="round"/>
<defs>
<linearGradient id="paint0_linear_1_49" x1="2.83669" y1="168.142" x2="301.731" y2="99.9635" gradientUnits="userSpaceOnUse">
<stop stop-color="#DD3D49"/>
<stop offset="0.320833" stop-color="#E99ABF"/>
<stop offset="0.633333" stop-color="#FF0000"/>
<stop offset="1" stop-color="#F4AA0E"/>
</linearGradient>
</defs>
</svg>
