<svg width="315" height="44" viewBox="0 0 315 44" fill="none" xmlns="http://www.w3.org/2000/svg">
<path d="M313.003 4.04979C248.647 3.73275 184.713 0.554342 120.328 2.16166C83.3184 3.08557 -27.3562 5.89801 9.44581 8.62622C69.9365 13.1105 132.097 10.0081 192.89 12.0954C216.445 12.9041 239.841 14.3655 263.313 15.9679C272.345 16.5846 279.443 18.0034 265.035 18.0059C200.729 18.0169 136.589 14.4061 72.2708 14.1969C65.4072 14.1745 45.1105 14.9459 51.7787 16.2013C76.221 20.8027 102.264 21.858 127.145 23.8881C157.107 26.3327 187.485 27.3211 217.254 30.9909C227.948 32.3091 242.185 32.2174 252.233 35.4403C270.014 41.1438 214.069 39.7131 194.89 40.3004C162.971 41.2778 131.041 41.2242 99.1228 41.64" stroke="url(#paint0_linear_1_38)" stroke-width="3" stroke-linecap="round"/>
<defs>
<linearGradient id="paint0_linear_1_38" x1="3.15768" y1="31.4124" x2="272.313" y2="-87.0912" gradientUnits="userSpaceOnUse">
<stop stop-color="#F5AB0E"/>
<stop offset="1" stop-color="#FF2445"/>
</linearGradient>
</defs>
</svg>
